# xmcd CD database file
#
# Track frame offsets:
#	150
#	31015
#	56935
#	76298
#	94930
#	123843
#	139535
#	167963
#	188825
#	205135
#	234540
#	250090
#
# Disc length: 3749 seconds
#
# Revision: 0
# Processed by: cddbd v1.5.2PL0 Copyright (c) Steve Scherf et al.
# Submitted via: CDex 1.92
#
DISCID=9c0ea30c
DTITLE=Magnus Lindgren - Batucada Jazz
DYEAR=2009
DGENRE=Jazz
TTITLE0=Alligator
TTITLE1=Elbow Style
TTITLE2=Rio Shadow
TTITLE3=Copaflat
TTITLE4=Soofa
TTITLE5=Farofa
TTITLE6=Flutish
TTITLE7=Dalodrum
TTITLE8=Djungledance
TTITLE9=Batucada Jazz
TTITLE10=Never Let go
TTITLE11=No More words
EXTD=YEAR: 2009
EXTT0=
EXTT1=
EXTT2=
EXTT3=
EXTT4=
EXTT5=
EXTT6=
EXTT7=
EXTT8=
EXTT9=
EXTT10=
EXTT11=
PLAYORDER=
